<svg xmlns="http://www.w3.org/2000/svg" version="1.1" xmlns:xlink="http://www.w3.org/1999/xlink" xmlns:svgjs="http://svgjs.dev/svgjs" width="2000" height="2250" viewBox="0 0 2000 2250"><g transform="matrix(1,0,0,1,0.00014687500004129106,0)"><svg viewBox="0 0 320 360" data-background-color="#ffffff" preserveAspectRatio="xMidYMid meet" height="2250" width="2000" xmlns="http://www.w3.org/2000/svg" xmlns:xlink="http://www.w3.org/1999/xlink"><g id="tight-bounds" transform="matrix(1,0,0,1,0.000023499999997511622,0)"><svg viewBox="0 0 320 360" height="360" width="320"><g><svg></svg></g><g><svg viewBox="0 0 320 360" height="360" width="320"><g><path transform="translate(-74.99272,-51.79039) scale(4.65793,4.65793)" d="M20.6 59.9l0.8 1-0.4-1.3c-0.1-0.6-0.8 0.1-0.4 0.3M21.5 59.3c0.3 0.5 0.6 1 0.6 1.5 0 0.7 0.6 1 1.1 1.2-0.7-0.8-1.1-3-1.7-2.7M59.9 16.9c1.7 0 3.3-0.2 5.1 0.2 4.4 1.1 8.1 3.3 10.6 6.4l7 11.2c0.3 2.8 0.9 5.9 0.8 9.3 0.7 0 0.6-1 1.4-1.2-0.8 2-1.2 4.5-1.4 7.4-0.5-1.6 0-4 0.1-5.3-0.7 1.1-1.1 0.3-1.1-0.2 0.1-0.8-0.3-0.7-0.6-1-1.1-1-1.8-2.1-2.6-3.8 0.5-1.3 0.6-3.2-1-4.2-0.5-0.3-1.1-0.8-1.4-1.6-0.4-1.1-1.1-2.4-0.9-4.1 0.1-0.5-1.5 1.1-2.4 0.4-3.9-2.7-7.8-5.8-12.5-8.4-2.5 0-4.3-0.9-5.2-2-0.8-1-0.2-2.3 1-2.4 0.7 0 1.5-0.2 2.1 0.2 0.1-0.4 0.5-0.9 1-0.9M50 14.6l0.2 0.1c1 0.2 1.5 1.6 2.6 1.1 0 0.7 0.1 1.4-0.1 1.9-0.3 0.8-1.2 0.8-1.9 0.8-6.7-0.4-10.6 2.4-14.7 4.8-1.1 0.7-2.3 1.2-3.2 2.1-4.3 4-9 7.7-10.1 15.1l-0.9 8.2c-0.1 0.9-1.1 1.8-0.9 2.9l0.7 4.9c-0.7-0.7-1.1 0.2-0.9 0.6 0.1 0.3 0.5 1.3 1.1 0.4 0.8 1.5 1.6 4.4 2.7 5.7 3.4 4 7.8 7.6 11.4 11.2 0.9-0.2 1.6-0.2 1.8-0.8 0.3 0.6-0.3 1.2-0.8 1.3 1.6 1 3.4 1.9 5.8 2.1 3.1 0.2 6 0.7 8.7 1.4 1.4-0.4 2.8-0.6 4.3-0.7 0.5 0 0.8-0.8 1.4-1l0.1-1c0.6 0.9 0.5-0.3 0.1-0.9 0.7 0.6 0.9 1.1 1.2 1.5 0-0.3 0.8-1.4 0.8-0.1l0.2-1.3c0.3-0.2 0.4 1.1 0.7 0.2 0.3-0.9 0.9-0.2 1.5-0.5-0.2 0.4-0.1 1.2 0.6 0.7l0.8-0.7c0.5 1.2 1.3 0.7 1.7 0.5 4.4-2.8 8.8-6.1 13-9.4l-0.1 1.3 0.5-1.6c0.5 0.5 0.9 0.1 1.1-0.2 0.6-1 1.4-2 2.7-2.9-1.6 4.3-3.5 7.7-5.9 10.5l-1 1.2c0 0.7-0.2 1.6-1 1.7-0.4 0.1-1.2-0.2-1.8 0.4-0.3 0.4 0.7 1.2-0.1 0.6-0.7-0.5-1.4 0-2.2 0.2-0.6 0.2 0.4 0.8 0.6 1.2 0.2 0.4 0.4 0.8 0.3 1.3l-1.1-1.2c-1.3 0.7-2.1 2-3.2 3-0.5 0.4-0.3 1.1-0.3 1.7-0.7 0-1.5-0.2-1.9 0.2-0.3 0.4-0.2 1-0.2 1.6-1-0.1-1.1-1.6-2-1.3-0.9 0.2-1.9 0.3-2.7 0.8 0.6 1.2-1 0.5-0.8 0.7-1.5-0.9-2.8-1.6-4.4-1-3.4-1.1-7.6-0.6-10.7-0.2 0-0.5 0.1-1-0.1-1.1-0.2 0.5-0.8 0.3-0.7 0.3-1.9-1.3-3.8-2.1-5.8-3.2-1.8 0.2-3.5-0.7-4-1.2-1.4-1.3-3-0.6-4.3-0.9-2.8-0.7-3.8-3.6-4.1-5.6-0.2-1-1-1.4-1.3-1.3-1.3-4.2-3.3-8-4.9-11.9-0.4-1-0.3-2-0.3-3.1 0.5 0.2 1 0.1 0.9-0.6-0.5-3.3-1.7-5.8-3-8.2 0.7-3.4 0.8-7.4 2.4-10.4 1.4-2.7 4-4.1 5.8-6.4 0.6-0.8 0.6-1.9 1.2-2.6 2-2 4-4.1 6.2-5.9 1-0.8 2.2 0 3.7-0.3 0.5-1.8 2.5-3.4 4.4-2.9 0.8 0.2 2.4-1.9 2.9-2.1 0.8-0.3 0.4 0.8 0.4 1.5 1.9-1.5 4.5-2.3 6.9-3.2" fill="#000000" fill-rule="nonzero" stroke="none" stroke-width="1" stroke-linecap="butt" stroke-linejoin="miter" stroke-miterlimit="10" stroke-dasharray="" stroke-dashoffset="0" font-family="none" font-weight="none" font-size="none" text-anchor="none" style="mix-blend-mode: normal" data-fill-palette-color="tertiary"></path></g><g transform="matrix(1,0,0,1,64,122.11895724089197)"><svg viewBox="0 0 192 115.76208551821605" height="115.76208551821605" width="192"><g><svg viewBox="0 0 192 115.76208551821605" height="115.76208551821605" width="192"><g><svg viewBox="0 0 192 115.76208551821605" height="115.76208551821605" width="192"><g transform="matrix(1,0,0,1,0,69.04215082286306)"><svg viewBox="0 0 192 46.71993469535298" height="46.71993469535298" width="192"><g id="textblocktransform"><svg viewBox="0 0 192 46.71993469535298" height="46.71993469535298" width="192" id="textblock"><g><svg viewBox="0 0 192 30.66802632798739" height="30.66802632798739" width="192"><g transform="matrix(1,0,0,1,0,0)"><svg width="192" viewBox="1.83 -41.33 263.34000000000003 42.059999999999995" height="30.66802632798739" data-palette-color="#152232"><path d="M13.79-0.29L13.79-0.29Q12.55 0.49 10.96 0.49 9.38 0.49 8.13-0.29L8.13-0.29Q6.88 0.49 5.82 0.49 4.76 0.49 4.08 0.31 3.39 0.12 2.88-0.2L2.88-0.2Q1.83-0.83 1.83-1.78L1.83-1.78Q1.83-2.27 2.1-2.64L2.1-2.64Q2.64-2.22 3.47-2.22L3.47-2.22Q5.64-2.22 6.47-4.08L6.47-4.08 6.47-16.02Q6.47-17.14 6.01-17.68L6.01-17.68Q5.27-18.58 3.49-19.46L3.49-19.46Q5.15-20.21 5.64-20.8L5.64-20.8Q6.47-21.75 6.47-22.95L6.47-22.95 6.47-33.25Q5.64-35.13 3.47-35.13L3.47-35.13Q2.64-35.13 2.1-34.72L2.1-34.72Q1.83-35.08 1.83-35.56 1.83-36.04 2.11-36.45 2.39-36.87 2.88-37.16L2.88-37.16Q4-37.84 5.46-37.84 6.91-37.84 8.13-37.04L8.13-37.04Q9.4-37.84 10.96-37.84 12.52-37.84 13.79-37.04L13.79-37.04Q16.55-38.09 19.91-38.09 23.27-38.09 25.54-37.48 27.81-36.87 29.44-35.74L29.44-35.74Q32.74-33.47 33.54-29.42L33.54-29.42Q33.86-27.61 35.86-26.68L35.86-26.68Q33.96-25.61 33.37-23.27L33.37-23.27Q32.18-18.43 27.39-17.24L27.39-17.24Q29.86-16.58 31.42-14.53L31.42-14.53Q33.03-12.4 33.03-9.52L33.03-9.52 33.03-7.08Q33.03-3.56 35.3-2.54L35.3-2.54Q35.99-2.22 36.79-2.22 37.6-2.22 38.13-2.64L38.13-2.64Q38.4-2.27 38.4-1.79 38.4-1.32 38.16-0.9 37.92-0.49 37.5-0.2L37.5-0.2Q36.62 0.49 35.45 0.49 34.28 0.49 33.15-0.15L33.15-0.15Q31.1 0.98 29.32 0.07L29.32 0.07Q28.64 0.49 27.88 0.49 27.12 0.49 26.43 0.15 25.73-0.2 25.2-0.98L25.2-0.98Q24.05-2.66 24.05-6.15L24.05-6.15 24.05-7.96Q24.05-13.6 20.83-15.28L20.83-15.28Q19.75-15.84 18.31-15.84L18.31-15.84 15.45-15.84 15.45-3.96Q16.11-2.22 17.97-2.22L17.97-2.22Q18.8-2.22 19.34-2.64L19.34-2.64Q19.6-2.27 19.6-1.56 19.6-0.85 18.84-0.18 18.07 0.49 16.53 0.49 14.99 0.49 13.79-0.29ZM20.14-34.84L20.14-34.84Q15.45-34.84 15.45-31.2L15.45-31.2 15.45-21.22Q15.45-19.95 16.46-19.51L16.46-19.51Q17.41-19.09 19.27-19.09 21.14-19.09 21.89-19.3 22.63-19.51 23.17-20.02L23.17-20.02Q24.27-21.07 24.27-23.54L24.27-23.54 24.27-30.66Q24.27-33.72 21.73-34.57L21.73-34.57Q20.97-34.84 20.14-34.84ZM25.9-33.28L25.9-33.28Q26.66-31.57 26.66-27.81L26.66-27.81Q26.66-21.34 26.05-20.07L26.05-20.07Q27.39-20.34 27.98-23.66L27.98-23.66 28.17-24.66Q28.44-26.25 29.74-26.68L29.74-26.68Q28.78-27 28.52-27.44L28.52-27.44Q28.22-27.95 27.99-29.19 27.76-30.42 27.51-31.18 27.27-31.93 27-32.37L27-32.37Q26.54-33.15 25.9-33.28ZM8.81-9.64L8.81-6.47Q10.03-6.93 10.16-9.67L10.16-9.67Q10.3-12.4 10.3-17.24 10.3-22.07 10.29-23.67 10.28-25.27 10.25-26.25L10.25-26.25Q10.18-29.13 9.7-29.72 9.23-30.32 8.81-30.52L8.81-30.52Q8.81-22.02 8.52-20.85L8.52-20.85Q8.18-19.87 6.86-19.46L6.86-19.46Q8.33-18.95 8.52-18.21L8.52-18.21Q8.81-17.04 8.81-9.64L8.81-9.64ZM25.66-13.16L25.66-13.16Q26.64-12.06 26.64-10.47L26.64-10.47 26.64-7.25Q26.64-3.2 28.25-2.93L28.25-2.93Q28.69-2.86 29.1-2.95L29.1-2.95Q28.22-4.32 28.22-5.83L28.22-5.83 28.22-9.25Q28.22-11.18 27.69-11.99L27.69-11.99Q26.76-13.35 25.66-13.16ZM61.47-7.37L61.47-7.37Q62.01-8.4 63.45-8.4L63.45-8.4Q64.43-8.4 64.96-7.59L64.96-7.59Q65.4-6.96 65.4-6.04 65.4-5.13 64.94-4.2 64.48-3.27 63.67-2.51 62.86-1.76 61.83-1.17 60.79-0.59 59.62-0.2L59.62-0.2Q57.2 0.61 54.59 0.61 51.98 0.61 49.69-0.26 47.41-1.12 45.77-2.69L45.77-2.69Q42.58-5.76 41.87-11.13L41.87-11.13Q41.7-12.33 41.31-12.84L41.31-12.84Q40.57-13.75 38.89-14.58L38.89-14.58Q41.01-15.53 41.6-17.63L41.6-17.63Q41.77-18.21 41.87-18.8L41.87-18.8Q42.48-23.1 46.21-26.12L46.21-26.12Q49.83-29.05 54.29-29.05L54.29-29.05Q58.93-29.05 62.33-25.78L62.33-25.78Q65.84-22.41 65.84-17.5L65.84-17.5Q65.84-17.33 65.83-17.16 65.82-16.99 65.84-16.85L65.84-16.85Q65.89-16.53 66.23-16.48L66.23-16.48Q66.67-15.92 66.67-15.28L66.67-15.28Q66.67-13.82 65.11-13.55L65.11-13.55Q64.72-13.48 63.89-13.35L63.89-13.35 50.12-11.16 50.12-8.81Q50.12-5.98 51.83-4.32L51.83-4.32Q53.44-2.73 55.91-2.73L55.91-2.73Q58.52-2.73 60.1-3.81L60.1-3.81Q61.59-4.83 61.59-6.49L61.59-6.49Q61.59-6.88 61.47-7.37ZM50.12-14.11L57.2-15.26 57.2-22.09Q57.2-23.71 56.56-24.46L56.56-24.46Q55.44-25.76 54.34-25.76 53.24-25.76 52.51-25.43 51.78-25.1 51.24-24.39L51.24-24.39Q50.12-22.9 50.12-19.75L50.12-19.75 50.12-14.11ZM59.3-15.63L60.81-15.87 60.81-16.63Q60.81-21.17 60.06-22.12L60.06-22.12Q59.71-22.53 59.3-22.73L59.3-22.73 59.3-15.63ZM46.14-6.47L46.14-6.47Q46.48-6.74 46.48-7.08L46.48-7.08Q46.48-7.62 46.26-8.45L46.26-8.45Q45.26-12.28 45.26-13.78 45.26-15.28 45.36-16.13 45.46-16.97 45.63-17.82L45.63-17.82Q45.92-19.48 46.26-20.75L46.26-20.75Q46.48-21.58 46.48-21.88L46.48-21.88Q46.48-22.46 46.14-22.73L46.14-22.73Q45.11-21.51 44.58-19.46 44.04-17.41 43.7-15.84L43.7-15.84Q43.58-15.19 42.26-14.58L42.26-14.58Q43.58-13.96 43.7-13.35L43.7-13.35Q44.6-9.23 45.19-8.11 45.77-6.98 46.14-6.47ZM86.93-2.32L86.93-2.32Q84.71 0.61 80.27 0.61L80.27 0.61Q74.85 0.61 72.14-2.64L72.14-2.64Q70.97-4.03 70.53-5.74L70.53-5.74Q70.28-6.76 69.67-7.31 69.06-7.86 68.16-8.3L68.16-8.3Q69.92-9.11 70.67-11.33L70.67-11.33Q71.48-13.67 73.36-14.72L73.36-14.72Q75.39-15.82 77.83-15.88 80.27-15.94 81.44-16.04 82.61-16.14 83.52-16.36L83.52-16.36Q85.2-16.75 86.15-17.8L86.15-17.8 86.15-21.46Q86.15-23.88 85.16-25 84.17-26.12 82.16-26.12 80.15-26.12 79.18-25.38 78.22-24.63 78.22-23.39L78.22-23.39Q78.22-21.48 80.17-21.53L80.17-21.53Q79.78-19.63 78.12-19.63L78.12-19.63Q77.63-19.63 77.17-19.8L77.17-19.8 77.17-19.73Q77.17-19.09 77.75-18.92L77.75-18.92Q77.14-17.99 75.7-18.02 74.26-18.04 73.46-19.56L73.46-19.56Q73.09-19.46 72.61-19.46 72.14-19.46 71.56-19.78 70.99-20.09 70.65-20.65L70.65-20.65Q71.87-21.39 72.14-22.92L72.14-22.92Q72.43-24.8 75.14-26.73L75.14-26.73Q78.41-29.05 83.49-29.05L83.49-29.05Q91.91-29.05 93.77-23.88L93.77-23.88Q94.38-22.14 94.38-19.78L94.38-19.78 94.38-17.8Q94.38-16.6 94.98-15.84 95.58-15.09 97.02-14.6L97.02-14.6Q95.48-13.89 95.04-13.33L95.04-13.33Q94.38-12.48 94.38-11.38L94.38-11.38 94.38-4.05Q95.09-2.22 96.41-2.22L96.41-2.22Q97.24-2.22 97.77-2.64L97.77-2.64Q98.12-2.17 98.12-1.48 98.12-0.78 97.42-0.15 96.72 0.49 95.33 0.49 93.94 0.49 92.74-0.29L92.74-0.29Q91.69 0.49 90.88 0.49 90.06 0.49 89.46 0.33 88.86 0.17 88.35-0.17L88.35-0.17Q87.2-0.93 86.93-2.32ZM88.47-22.73L88.47-6.47Q89.89-7.03 89.96-11.87L89.96-11.87Q89.96-12.89 89.96-14.21 89.96-15.53 89.95-16.47 89.94-17.41 89.91-18.26L89.91-18.26Q89.81-21.34 89.35-21.94 88.89-22.53 88.47-22.73L88.47-22.73ZM79.46-8.2L79.46-8.2Q79.46-7.18 79.68-6.2 79.9-5.22 80.34-4.49L80.34-4.49Q81.32-2.95 83.1-2.95L83.1-2.95Q84.44-2.95 85.32-4.05L85.32-4.05Q86.15-5.13 86.15-6.81L86.15-6.81 86.15-14.77Q84.59-13.87 82.15-13.53L82.15-13.53Q79.46-13.11 79.46-8.2ZM75.8-2.71L75.8-2.71Q76.04-2.88 76.04-3.15L76.04-3.15Q76.04-3.52 75.7-4.17L75.7-4.17Q74.48-6.42 74.48-7.86 74.48-9.3 74.59-9.94 74.7-10.57 74.89-11.02 75.07-11.47 75.3-11.82 75.53-12.16 75.7-12.43L75.7-12.43Q76.02-12.99 76.02-13.2 76.02-13.4 75.8-13.55L75.8-13.55Q74.8-13.09 74.34-12.45L74.34-12.45Q73.51-11.33 73.12-9.55L73.12-9.55Q73.02-9.03 71.41-8.3L71.41-8.3Q72.97-7.59 73.12-7.06L73.12-7.06Q73.95-4.15 75.8-2.71ZM105.83-0.29L105.83-0.29Q104.7 0.49 103.28 0.49 101.85 0.49 101.15-0.15 100.46-0.78 100.46-1.37L100.46-1.37Q100.46-2.17 100.8-2.64L100.8-2.64Q101.34-2.22 102.17-2.22L102.17-2.22Q103.58-2.22 104.19-3.86L104.19-3.86 104.19-11.38Q104.19-12.45 103.75-12.94L103.75-12.94Q103.04-13.67 101.21-14.58L101.21-14.58Q102.92-15.36 103.41-15.84L103.41-15.84Q104.19-16.65 104.19-17.82L104.19-17.82 104.19-31.62Q104.19-34.4 101.92-34.4L101.92-34.4Q101.09-34.4 100.55-33.98L100.55-33.98Q100.21-34.45 100.21-34.95 100.21-35.45 100.47-35.91 100.72-36.38 101.26-36.77L101.26-36.77Q102.41-37.6 104.17-37.6 105.93-37.6 106.9-37.38L106.9-37.38Q108.24-39.06 109.93-39.06L109.93-39.06Q112.37-39.06 112.37-36.43L112.37-36.43 112.37-17.82Q112.37-16.65 112.88-16.14L112.88-16.14Q113.64-15.36 115.35-14.58L115.35-14.58Q113.52-13.67 113.05-13.21L113.05-13.21Q112.37-12.45 112.37-11.38L112.37-11.38 112.37-3.86Q112.96-2.22 114.4-2.22L114.4-2.22Q115.23-2.22 115.76-2.64L115.76-2.64Q116.11-2.17 116.11-1.48 116.11-0.78 115.41-0.15 114.71 0.49 113.32 0.49 111.93 0.49 110.73-0.29L110.73-0.29Q109.73 0.49 108.35 0.49 106.97 0.49 105.83-0.29ZM106.54-8.08L106.54-6.49Q107.63-7.2 107.83-9.59L107.83-9.59Q107.9-10.64 107.93-11.94 107.95-13.23 107.96-13.78 107.98-14.33 107.98-14.6L107.98-14.6 107.98-16.8Q107.98-17.7 107.95-18.85L107.95-18.85 107.95-21.24Q107.88-27.71 107.71-28.44L107.71-28.44Q107.37-29.98 106.54-30.52L106.54-30.52 106.54-22.29Q106.54-17.24 106.43-16.66 106.32-16.09 106.24-15.82L106.24-15.82Q106.02-15.06 104.58-14.58L104.58-14.58Q106.05-14.06 106.24-13.35L106.24-13.35Q106.54-12.18 106.54-8.08L106.54-8.08ZM142.13-4.22Q143.11-5.05 143.68-6.37 144.25-7.69 144.25-9.14 144.25-10.6 143.69-11.4L143.69-11.4Q144.08-12.08 145.33-12.08 146.57-12.08 147.24-11.28 147.91-10.47 147.91-8.8 147.91-7.13 147.02-5.33 146.13-3.54 144.52-2.2L144.52-2.2Q140.96 0.73 135.61 0.73L135.61 0.73Q129.24 0.73 125.14-3.27L125.14-3.27Q120.96-7.37 120.11-14.97L120.11-14.97Q119.69-18.43 117.62-19.46L117.62-19.46Q118.76-20 119.2-20.58L119.2-20.58Q119.91-21.58 120.12-23.3 120.33-25.02 120.91-26.88 121.5-28.74 122.46-30.41 123.43-32.08 124.77-33.48 126.11-34.89 127.85-35.91L127.85-35.91Q131.51-38.09 136.39-38.09L136.39-38.09Q141.15-38.09 144.28-35.69L144.28-35.69Q147.08-33.52 147.91-29.79L147.91-29.79Q148.31-27.93 148.92-27.49L148.92-27.49Q149.16-27.29 149.53-27.12L149.53-27.12Q148.79-25.9 147.3-25.78L147.3-25.78Q146.65-25.68 145.89-26.05L145.89-26.05Q144.55-23.75 142.1-23.61L142.1-23.61Q141.59-23.56 141.32-23.8L141.32-23.8Q141.98-24.68 141.93-25.85L141.93-25.85Q141.93-26.07 141.86-26.29L141.86-26.29Q140.74-26.07 139.96-26.49L139.96-26.49Q138.69-27.22 138.64-28.08L138.64-28.08Q138.64-28.27 138.71-28.47L138.71-28.47Q140.22-28.03 141.59-29.15L141.59-29.15Q142.52-29.91 142.47-30.86 142.42-31.81 142.03-32.52 141.64-33.23 140.91-33.79L140.91-33.79Q139.25-35.11 136.76-35.11L136.76-35.11Q132.51-35.11 131.24-31.3L131.24-31.3Q130.82-30.03 130.82-28.32L130.82-28.32 130.82-23.39Q130.82-20.63 133.51-19.46L133.51-19.46Q130.82-18.16 130.82-15.23L130.82-15.23 130.82-9.2Q130.82-4.57 134.51-3.08L134.51-3.08Q135.71-2.61 137.15-2.61 138.59-2.61 139.87-3 141.15-3.39 142.13-4.22ZM125.65-6.47L125.65-6.47Q126.02-6.62 126.02-6.98L126.02-6.98Q126.02-7.52 125.5-8.67L125.5-8.67Q124.21-11.62 124.21-19.46L124.21-19.46Q124.21-25.17 125.58-29.17L125.58-29.17Q125.75-29.79 125.75-30.1 125.75-30.42 125.43-30.52L125.43-30.52Q124.28-29.08 123.79-27.66L123.79-27.66Q122.89-25.07 122.35-20.65L122.35-20.65Q122.28-20.02 120.91-19.46L120.91-19.46Q122.28-18.85 122.35-18.21L122.35-18.21Q123.23-10.64 124.6-8.11L124.6-8.11Q125.06-7.2 125.65-6.47ZM156.09-0.29L156.09-0.29Q154.97 0.49 153.54 0.49 152.11 0.49 151.42-0.15 150.72-0.78 150.72-1.37L150.72-1.37Q150.72-2.17 151.06-2.64L151.06-2.64Q151.6-2.22 152.43-2.22L152.43-2.22Q153.84-2.22 154.46-3.86L154.46-3.86 154.46-11.38Q154.46-12.6 153.99-13.04L153.99-13.04Q153.43-13.62 151.48-14.58L151.48-14.58Q153.19-15.36 153.65-15.82L153.65-15.82Q154.46-16.63 154.46-17.8L154.46-17.8 154.46-31.62Q154.46-34.4 152.18-34.4L152.18-34.4Q151.35-34.4 150.82-33.98L150.82-33.98Q150.48-34.45 150.48-34.95 150.48-35.45 150.73-35.91 150.99-36.38 151.5-36.77L151.5-36.77Q152.67-37.6 154.43-37.6 156.19-37.6 157.17-37.38L157.17-37.38Q158.51-39.06 160.19-39.06L160.19-39.06Q162.71-39.06 162.71-36.43L162.71-36.43 162.71-24.39Q165.08-28.81 170.45-28.81L170.45-28.81Q176.6-28.81 178.28-23.36L178.28-23.36Q178.82-21.63 178.82-19.43L178.82-19.43 178.82-17.8Q178.82-16.65 179.33-16.14L179.33-16.14Q180.09-15.38 181.8-14.6L181.8-14.6Q179.94-13.7 179.5-13.21L179.5-13.21Q178.82-12.45 178.82-11.38L178.82-11.38 178.82-3.74Q179.28-2.22 180.85-2.22L180.85-2.22Q181.68-2.22 182.21-2.64L182.21-2.64Q182.48-2.27 182.48-1.56 182.48-0.85 181.84-0.18 181.19 0.49 179.77 0.49 178.36 0.49 177.16-0.29L177.16-0.29Q176.06 0.49 174.68 0.49 173.3 0.49 172.28-0.24L172.28-0.24Q171.33 0.49 170.14 0.49 168.96 0.49 168.25-0.12 167.54-0.73 167.54-1.88L167.54-1.88Q167.54-2.42 167.91-2.73L167.91-2.73Q168.47-2.29 169.03-2.29L169.03-2.29Q170.1-2.29 170.57-3.49L170.57-3.49 170.57-18.04Q170.57-22.8 168.25-23.54L168.25-23.54Q167.52-23.78 166.66-23.78L166.66-23.78Q164.12-23.78 163.12-21.09L163.12-21.09Q162.8-20.26 162.71-19.29L162.71-19.29 162.71-3.49Q163.17-2.29 164.25-2.29L164.25-2.29Q164.81-2.29 165.37-2.73L165.37-2.73Q165.73-2.42 165.73-1.57 165.73-0.73 165.03-0.12 164.32 0.49 163.12 0.49 161.93 0.49 160.97-0.24L160.97-0.24Q159.97 0.49 158.61 0.49 157.24 0.49 156.09-0.29ZM156.75-8.08L156.75-6.49Q157.85-7.2 158.04-9.59L158.04-9.59Q158.12-10.64 158.14-11.94 158.17-13.23 158.18-13.78 158.19-14.33 158.19-14.6L158.19-14.6 158.19-16.8Q158.19-17.7 158.19-18.85L158.19-18.85 158.14-21.24Q158.09-27.71 157.92-28.44L157.92-28.44Q157.58-29.98 156.75-30.52L156.75-30.52 156.75-22.29Q156.75-17.24 156.64-16.66 156.53-16.09 156.46-15.82L156.46-15.82Q156.24-15.06 154.8-14.58L154.8-14.58Q156.26-14.06 156.46-13.35L156.46-13.35Q156.75-12.18 156.75-8.08L156.75-8.08ZM172.89-15.26L172.89-6.47Q174.11-6.93 174.26-9.67L174.26-9.67Q174.38-12.4 174.38-14.69 174.38-16.97 174.23-18.41 174.08-19.85 173.75-20.69 173.43-21.53 172.91-21.96 172.4-22.39 171.67-22.75L171.67-22.75Q172.59-20.56 172.74-18.75 172.89-16.94 172.89-15.26L172.89-15.26ZM202.3-2.32L202.3-2.32Q200.08 0.61 195.64 0.61L195.64 0.61Q190.22 0.61 187.51-2.64L187.51-2.64Q186.34-4.03 185.9-5.74L185.9-5.74Q185.65-6.76 185.04-7.31 184.43-7.86 183.53-8.3L183.53-8.3Q185.29-9.11 186.04-11.33L186.04-11.33Q186.85-13.67 188.73-14.72L188.73-14.72Q190.76-15.82 193.2-15.88 195.64-15.94 196.81-16.04 197.98-16.14 198.89-16.36L198.89-16.36Q200.57-16.75 201.52-17.8L201.52-17.8 201.52-21.46Q201.52-23.88 200.53-25 199.55-26.12 197.53-26.12 195.52-26.12 194.55-25.38 193.59-24.63 193.59-23.39L193.59-23.39Q193.59-21.48 195.54-21.53L195.54-21.53Q195.15-19.63 193.49-19.63L193.49-19.63Q193-19.63 192.54-19.8L192.54-19.8 192.54-19.73Q192.54-19.09 193.12-18.92L193.12-18.92Q192.51-17.99 191.07-18.02 189.63-18.04 188.83-19.56L188.83-19.56Q188.46-19.46 187.99-19.46 187.51-19.46 186.94-19.78 186.36-20.09 186.02-20.65L186.02-20.65Q187.24-21.39 187.51-22.92L187.51-22.92Q187.8-24.8 190.51-26.73L190.51-26.73Q193.78-29.05 198.86-29.05L198.86-29.05Q207.28-29.05 209.14-23.88L209.14-23.88Q209.75-22.14 209.75-19.78L209.75-19.78 209.75-17.8Q209.75-16.6 210.35-15.84 210.95-15.09 212.39-14.6L212.39-14.6Q210.85-13.89 210.41-13.33L210.41-13.33Q209.75-12.48 209.75-11.38L209.75-11.38 209.75-4.05Q210.46-2.22 211.78-2.22L211.78-2.22Q212.61-2.22 213.14-2.64L213.14-2.64Q213.49-2.17 213.49-1.48 213.49-0.78 212.79-0.15 212.09 0.49 210.7 0.49 209.31 0.49 208.11-0.29L208.11-0.29Q207.07 0.49 206.25 0.49 205.43 0.49 204.83 0.33 204.23 0.17 203.72-0.17L203.72-0.17Q202.57-0.93 202.3-2.32ZM203.84-22.73L203.84-6.47Q205.26-7.03 205.33-11.87L205.33-11.87Q205.33-12.89 205.33-14.21 205.33-15.53 205.32-16.47 205.31-17.41 205.28-18.26L205.28-18.26Q205.19-21.34 204.72-21.94 204.26-22.53 203.84-22.73L203.84-22.73ZM194.83-8.2L194.83-8.2Q194.83-7.18 195.05-6.2 195.27-5.22 195.71-4.49L195.71-4.49Q196.69-2.95 198.47-2.95L198.47-2.95Q199.81-2.95 200.69-4.05L200.69-4.05Q201.52-5.13 201.52-6.81L201.52-6.81 201.52-14.77Q199.96-13.87 197.52-13.53L197.52-13.53Q194.83-13.11 194.83-8.2ZM191.17-2.71L191.17-2.71Q191.42-2.88 191.42-3.15L191.42-3.15Q191.42-3.52 191.07-4.17L191.07-4.17Q189.85-6.42 189.85-7.86 189.85-9.3 189.96-9.94 190.07-10.57 190.26-11.02 190.44-11.47 190.67-11.82 190.9-12.16 191.07-12.43L191.07-12.43Q191.39-12.99 191.39-13.2 191.39-13.4 191.17-13.55L191.17-13.55Q190.17-13.09 189.71-12.45L189.71-12.45Q188.88-11.33 188.49-9.55L188.49-9.55Q188.39-9.03 186.78-8.3L186.78-8.3Q188.34-7.59 188.49-7.06L188.49-7.06Q189.32-4.15 191.17-2.71ZM223.49-32.3L223.49-32.3Q222.25-32.3 221.09-32.96 219.93-33.62 219.32-34.72L219.32-34.72Q218.66-35.84 217.56-36.43L217.56-36.43Q217.22-36.6 216.78-36.79L216.78-36.79 217.61-37.3Q218.78-38.04 219.34-39.09 219.9-40.14 221.04-40.73 222.17-41.33 223.49-41.33L223.49-41.33Q226.23-41.33 227.45-39.04L227.45-39.04Q228.28-37.52 230.01-36.79L230.01-36.79Q229.65-36.57 229.29-36.4 228.94-36.23 228.62-36.01L228.62-36.01Q227.91-35.52 227.36-34.57 226.81-33.62 225.78-32.96 224.74-32.3 223.49-32.3ZM222.2-35.29Q222.05-35.55 221.97-35.9 221.88-36.25 221.88-37.16 221.88-38.06 222.81-39.45L222.81-39.45Q221.91-39.45 221.54-39.12 221.17-38.79 220.99-38.56 220.81-38.33 220.67-38.1 220.54-37.87 220.34-37.6L220.34-37.6Q219.88-36.94 219.59-36.79L219.59-36.79Q219.98-36.57 220.31-36.1 220.64-35.62 221.08-35.11L221.08-35.11Q221.74-34.3 222.81-34.3L222.81-34.3Q222.66-34.57 222.5-34.8 222.35-35.03 222.2-35.29ZM221.05-0.29L221.05-0.29Q219.93 0.49 218.5 0.49 217.07 0.49 216.38-0.15 215.68-0.78 215.68-1.37L215.68-1.37Q215.68-2.17 216.02-2.64L216.02-2.64Q216.56-2.22 217.61-2.22 218.66-2.22 219.42-3.59L219.42-3.59 219.42-11.38Q219.42-12.45 218.98-12.94L218.98-12.94Q218.27-13.67 216.44-14.58L216.44-14.58Q218.15-15.36 218.61-15.82L218.61-15.82Q219.42-16.63 219.42-17.8L219.42-17.8 219.42-21.36Q219.42-23.44 218-23.61L218-23.61Q217.59-23.66 216.95-23.66 216.32-23.66 215.78-23.24L215.78-23.24Q215.44-23.71 215.44-24.21 215.44-24.71 215.69-25.33 215.95-25.95 216.49-26.51L216.49-26.51Q217.76-27.83 219.42-27.83 221.08-27.83 222.42-27.25L222.42-27.25Q223.62-28.81 225.15-28.81L225.15-28.81Q227.67-28.81 227.67-26.17L227.67-26.17 227.67-17.8Q227.67-16.63 228.18-16.11L228.18-16.11Q228.94-15.36 230.65-14.58L230.65-14.58Q228.82-13.67 228.35-13.21L228.35-13.21Q227.67-12.45 227.67-11.38L227.67-11.38 227.67-3.52Q228.47-2.22 229.5-2.22 230.52-2.22 231.06-2.64L231.06-2.64Q231.4-2.17 231.4-1.48 231.4-0.78 230.71-0.15 230.01 0.49 228.62 0.49 227.23 0.49 226.03-0.29L226.03-0.29Q225.03 0.49 223.62 0.49 222.2 0.49 221.05-0.29ZM223.16-11.87Q223.18-12.7 223.19-13.26 223.2-13.82 223.2-14.16L223.2-14.16 223.2-14.82Q223.2-15.19 223.19-15.77 223.18-16.36 223.16-17.07 223.15-17.77 223.13-18.46L223.13-18.46Q223.03-20.14 222.88-20.78L222.88-20.78Q222.59-22.19 221.76-22.73L221.76-22.73 221.76-21.14Q221.76-17.02 221.58-16.3 221.39-15.58 220.99-15.22 220.59-14.87 219.81-14.6L219.81-14.6Q221.27-14.09 221.47-13.35L221.47-13.35Q221.76-12.18 221.76-8.06L221.76-8.06 221.76-6.47Q222.88-7.2 223.03-9.47L223.03-9.47Q223.15-11.04 223.16-11.87ZM238.6-0.29L238.6-0.29Q237.48 0.49 236.04 0.49 234.6 0.49 233.95-0.18 233.31-0.85 233.31-1.46L233.31-1.46Q233.31-2.27 233.57-2.64L233.57-2.64Q234.11-2.22 234.94-2.22L234.94-2.22Q236.5-2.22 236.97-3.74L236.97-3.74 236.97-11.33Q236.97-12.4 236.5-12.89L236.5-12.89Q235.8-13.7 233.99-14.58L233.99-14.58Q235.7-15.36 236.16-15.82L236.16-15.82Q236.97-16.63 236.97-17.8L236.97-17.8 236.97-21.36Q236.97-23.44 235.55-23.61L235.55-23.61Q235.14-23.66 234.5-23.66 233.87-23.66 233.33-23.24L233.33-23.24Q232.99-23.71 232.99-24.21 232.99-24.71 233.24-25.33 233.5-25.95 234.01-26.51L234.01-26.51Q235.31-27.83 237-27.83 238.7-27.83 239.82-27.29L239.82-27.29Q241.17-28.81 242.56-28.81 243.95-28.81 244.49-28.16 245.02-27.51 245.02-26.17L245.02-26.17 245.02-23.88Q246.29-26.15 248.49-27.48 250.69-28.81 253.15-28.81 255.62-28.81 257.12-28.16 258.62-27.51 259.6-26.32L259.6-26.32Q261.5-23.95 261.5-19.43L261.5-19.43 261.5-17.82Q261.5-16.65 262.02-16.14L262.02-16.14Q262.77-15.36 264.48-14.58L264.48-14.58Q262.65-13.67 262.19-13.21L262.19-13.21Q261.5-12.45 261.5-11.38L261.5-11.38 261.5-3.74Q261.97-2.22 263.53-2.22L263.53-2.22Q264.36-2.22 264.9-2.64L264.9-2.64Q265.17-2.27 265.17-1.56 265.17-0.85 264.52-0.18 263.87 0.49 262.53 0.49 261.19 0.49 260.09-0.27L260.09-0.27Q259.11 0.49 257.8 0.49 256.5 0.49 255.47-0.24L255.47-0.24Q254.4 0.49 253.18 0.49 251.96 0.49 251.25-0.12 250.54-0.73 250.54-1.88L250.54-1.88Q250.54-2.42 250.91-2.73L250.91-2.73Q251.47-2.29 252.03-2.29L252.03-2.29Q253.11-2.29 253.57-3.49L253.57-3.49 253.57-18.04Q253.57-22.78 251.25-23.54L251.25-23.54Q250.49-23.78 249.61-23.78 248.73-23.78 247.98-23.43 247.22-23.07 246.61-22.44L246.61-22.44Q245.27-21.02 245.02-19.07L245.02-19.07 245.02-3.49Q245.49-2.29 246.56-2.29L246.56-2.29Q247.12-2.29 247.69-2.73L247.69-2.73Q248.05-2.42 248.05-1.57 248.05-0.73 247.34-0.12 246.64 0.49 245.48 0.49 244.32 0.49 243.36-0.24L243.36-0.24Q242.44 0.49 241.09 0.49 239.75 0.49 238.6-0.29ZM255.91-15.77L255.91-6.47Q257.13-6.93 257.26-9.67L257.26-9.67Q257.4-12.4 257.4-14.82 257.4-17.24 257.21-18.81 257.01-20.39 256.65-21.28 256.28-22.17 255.78-22.57 255.28-22.97 254.69-23.27L254.69-23.27Q255.62-21.07 255.77-19.26 255.91-17.46 255.91-15.77L255.91-15.77ZM240.71-11.87Q240.73-12.67 240.74-13.22 240.75-13.77 240.75-14.11 240.75-14.45 240.75-14.81 240.75-15.16 240.74-15.75 240.73-16.33 240.71-17.04 240.7-17.75 240.65-18.43L240.65-18.43Q240.58-20.12 240.43-20.75L240.43-20.75Q240.14-22.17 239.31-22.71L239.31-22.71 239.31-21.12Q239.31-17.02 239.13-16.3 238.94-15.58 238.54-15.21 238.14-14.84 237.36-14.58L237.36-14.58Q238.82-14.06 239.02-13.35L239.02-13.35Q239.31-12.18 239.31-8.08L239.31-8.08 239.31-6.49Q240.43-7.23 240.61-9.47L240.61-9.47Q240.7-11.06 240.71-11.87Z" opacity="1" transform="matrix(1,0,0,1,0,0)" fill="#000000" class="undefined-text-0" data-fill-palette-color="primary" id="text-0"></path></svg></g></svg></g><g transform="matrix(1,0,0,1,0,35.14322740187262)"><svg viewBox="0 0 192 11.57670729348036" height="11.57670729348036" width="192"><g transform="matrix(1,0,0,1,0,0)"><svg width="192" viewBox="1.25 -39 775.28 46.75" height="11.57670729348036" data-palette-color="#282e28"><path d="M27.45-2.1Q25.95-1 23.28-0.28 20.6 0.45 16.38 0.45 12.15 0.45 8.35-0.25 4.55-0.95 2.9-1.8 1.25-2.65 1.25-3.45L1.25-3.45Q1.25-6.25 2.05-9.28 2.85-12.3 3.95-12.3L3.95-12.3Q4.15-12.3 8.1-10.95 12.05-9.6 14.05-9.6 16.05-9.6 16.65-10.03 17.25-10.45 17.25-11.25 17.25-12.05 16.15-12.68 15.05-13.3 13.4-13.78 11.75-14.25 9.83-15.15 7.9-16.05 6.25-17.15 4.6-18.25 3.5-20.28 2.4-22.3 2.4-24.9L2.4-24.9Q2.4-36 15.65-36L15.65-36Q20.6-36 24.2-35.38 27.8-34.75 29.28-33.98 30.75-33.2 30.75-32.45L30.75-32.45Q30.75-29.85 29.53-26.85 28.3-23.85 27.15-23.85L27.15-23.85Q26.95-23.85 25.85-24.3L25.85-24.3Q22.55-25.75 20.38-25.75 18.2-25.75 17.43-25.35 16.65-24.95 16.65-24.13 16.65-23.3 17.75-22.78 18.85-22.25 20.48-21.83 22.1-21.4 24.03-20.53 25.95-19.65 27.6-18.48 29.25-17.3 30.35-15.15 31.45-13 31.45-10.15L31.45-10.15Q31.45-7.15 29.9-4.7L29.9-4.7Q28.95-3.2 27.45-2.1ZM49.25-11.3L47.6-11.3Q47.6-8.05 50.7-8.05L50.7-8.05Q52.5-8.05 55.4-9.28 58.3-10.5 58.45-10.5L58.45-10.5Q59.4-10.5 60.95-7.65 62.5-4.8 62.5-3.45L62.5-3.45Q62.5-1.5 58.5-0.5 54.5 0.5 50.67 0.5 46.85 0.5 44.27-0.1 41.7-0.7 40.07-1.63 38.45-2.55 37.22-3.9 36-5.25 35.4-6.48 34.8-7.7 34.45-9.2L34.45-9.2Q33.95-11.4 33.95-13.75L33.95-13.75Q33.95-22.85 38.7-26.3L38.7-26.3Q41.05-28.05 43.95-28.75 46.85-29.45 50.8-29.45L50.8-29.45Q63.45-29.45 63.45-20.65L63.45-20.65Q63.45-11.3 49.25-11.3L49.25-11.3ZM47.5-18.6L47.5-18.6 47.5-15.3Q48.95-15.3 49.87-16.45 50.8-17.6 50.8-19.25L50.8-19.25Q50.8-22.25 49.25-22.25L49.25-22.25Q47.5-22.25 47.5-18.6ZM72.9-0.85L72.9-0.85Q71.7-1.4 70.32-2.5 68.95-3.6 68.05-5.1L68.05-5.1Q65.95-8.7 65.95-14.5L65.95-14.5Q65.95-18.1 67.1-20.93 68.25-23.75 69.9-25.3 71.55-26.85 73.7-27.85L73.7-27.85Q77.15-29.45 80.6-29.45L80.6-29.45Q86.4-29.45 88.67-28.55 90.95-27.65 90.95-25.5 90.95-23.35 90.17-20.93 89.4-18.5 88.15-18.5L88.15-18.5Q87.75-18.5 85.72-19.35 83.7-20.2 82.22-20.2 80.75-20.2 79.97-19.03 79.2-17.85 79.2-14.48 79.2-11.1 79.9-9.88 80.6-8.65 82.07-8.65 83.55-8.65 85.75-9.65 87.95-10.65 88.2-10.65L88.2-10.65Q89.15-10.65 90.02-8.4 90.9-6.15 90.9-4.4L90.9-4.4Q90.9-1.7 88.1-0.63 85.3 0.45 80.52 0.45 75.75 0.45 72.9-0.85ZM103.99 0.45L103.99 0.45Q98.39 0.45 96.17-2.45 93.94-5.35 93.94-12.55L93.94-12.55 93.94-26.15Q93.94-27.15 96.89-28.08 99.84-29 103.09-29L103.09-29Q107.44-29 107.44-26.75L107.44-26.75 107.44-14.05Q107.44-10.25 107.74-8.53 108.04-6.8 109.24-6.8L109.24-6.8Q110.84-6.8 110.84-8.15L110.84-8.15 110.84-26.15Q110.84-27.2 113.94-28.1 117.04-29 120.69-29 124.34-29 124.34-27.05L124.34-27.05 124.34-1.3Q124.34-0.6 121.19-0.3 118.04 0 114.99 0 111.94 0 111.89-0.8L111.89-0.8 111.39-4.05 110.99-4.05Q110.54-2.25 109.19-1.1L109.19-1.1Q108.49-0.5 107.12-0.03 105.74 0.45 103.99 0.45ZM141.34-15.8L141.34-15.8 141.34-1.2Q141.34-0.65 138.52-0.33 135.69 0 132.66 0 129.64 0 128.74-0.28 127.84-0.55 127.84-1.2L127.84-1.2 127.84-25.85Q127.84-26.8 130.62-27.9 133.39-29 136.66-29 139.94-29 140.34-27.2L140.34-27.2 140.84-24.9 141.19-24.9Q141.89-26.8 144.54-28.13 147.19-29.45 149.84-29.45 152.49-29.45 153.56-28.6 154.64-27.75 154.64-26.43 154.64-25.1 154.44-23.05 154.24-21 153.47-18.6 152.69-16.2 151.44-16.2L151.44-16.2Q150.94-16.2 148.29-16.95 145.64-17.7 143.91-17.7 142.19-17.7 141.77-17.2 141.34-16.7 141.34-15.8ZM171.94-11.3L170.29-11.3Q170.29-8.05 173.39-8.05L173.39-8.05Q175.19-8.05 178.09-9.28 180.99-10.5 181.14-10.5L181.14-10.5Q182.09-10.5 183.64-7.65 185.19-4.8 185.19-3.45L185.19-3.45Q185.19-1.5 181.19-0.5 177.19 0.5 173.36 0.5 169.54 0.5 166.96-0.1 164.39-0.7 162.76-1.63 161.14-2.55 159.91-3.9 158.69-5.25 158.09-6.48 157.49-7.7 157.14-9.2L157.14-9.2Q156.64-11.4 156.64-13.75L156.64-13.75Q156.64-22.85 161.39-26.3L161.39-26.3Q163.74-28.05 166.64-28.75 169.54-29.45 173.49-29.45L173.49-29.45Q186.14-29.45 186.14-20.65L186.14-20.65Q186.14-11.3 171.94-11.3L171.94-11.3ZM170.19-18.6L170.19-18.6 170.19-15.3Q171.64-15.3 172.56-16.45 173.49-17.6 173.49-19.25L173.49-19.25Q173.49-22.25 171.94-22.25L171.94-22.25Q170.19-22.25 170.19-18.6ZM202.64-36.7L202.64-36.7 202.64-1.2Q202.64-0.65 199.79-0.33 196.94 0 193.91 0 190.89 0 190.01-0.28 189.14-0.55 189.14-1.2L189.14-1.2 189.14-35.8Q189.14-36.9 191.96-37.95 194.79-39 198.04-39L198.04-39Q202.64-39 202.64-36.7ZM222.98-3.25L222.98-3.25 222.98-6.2 222.58-6.2Q222.33-5.95 221.83-5.55 221.33-5.15 219.48-4.5 217.63-3.85 215.36-3.85 213.08-3.85 211.36-4.58 209.63-5.3 208.63-6.53 207.63-7.75 207.08-9.8L207.08-9.8Q206.13-13.05 206.13-19L206.13-19 206.13-25.9Q206.13-26.95 209.08-27.98 212.03-29 215.28-29L215.28-29Q219.63-29 219.63-26.75L219.63-26.75 219.63-20.45Q219.63-10.45 221.23-10.45L221.23-10.45Q222.18-10.45 222.18-11.8L222.18-11.8 222.18-25.9Q222.18-26.95 225.33-27.98 228.48-29 232.08-29 235.68-29 235.68-27.05L235.68-27.05 235.68-3.4Q235.68 7.75 220.58 7.75L220.58 7.75Q212.63 7.75 209.78 6.2L209.78 6.2Q208.53 5.5 208.53 4.75L208.53 4.75Q208.53 3.55 209.53 0.73 210.53-2.1 211.38-2.1L211.38-2.1Q211.58-2.1 212.78-1.8L212.78-1.8Q216.48-0.8 218.96-0.8 221.43-0.8 222.21-1.35 222.98-1.9 222.98-3.25ZM270.08-0.45Q269.18 0.4 265.98 0.4 262.78 0.4 260.68-0.03 258.58-0.45 256.68-1.7L256.68-1.7Q253.03-4.15 253.03-11.9L253.03-11.9 253.03-19.7 250.53-19.7Q249.98-19.7 249.58-20.85 249.18-22 249.18-24 249.18-26 249.8-27.53 250.43-29.05 251.43-29.05L251.43-29.05 253.03-29.05 253.03-35.1Q253.03-36.65 256.05-37.6 259.08-38.55 261.98-38.55L261.98-38.55Q266.53-38.55 266.53-36.3L266.53-36.3 266.53-29.05 270.23-29.05Q271.53-29.05 271.53-25.3L271.53-25.3Q271.53-22.85 270.95-21.28 270.38-19.7 269.48-19.7L269.48-19.7 266.53-19.7 266.53-10.55Q266.53-9.2 267.68-8.63 268.83-8.05 269.7-8.05 270.58-8.05 270.78-7.2 270.98-6.35 270.98-4.65L270.98-4.65Q270.98-1.3 270.08-0.45ZM288.03-15.8L288.03-15.8 288.03-1.2Q288.03-0.65 285.2-0.33 282.38 0 279.35 0 276.33 0 275.43-0.28 274.53-0.55 274.53-1.2L274.53-1.2 274.53-25.85Q274.53-26.8 277.3-27.9 280.08-29 283.35-29 286.63-29 287.03-27.2L287.03-27.2 287.53-24.9 287.88-24.9Q288.58-26.8 291.23-28.13 293.88-29.45 296.53-29.45 299.18-29.45 300.25-28.6 301.33-27.75 301.33-26.43 301.33-25.1 301.13-23.05 300.93-21 300.15-18.6 299.38-16.2 298.13-16.2L298.13-16.2Q297.63-16.2 294.98-16.95 292.33-17.7 290.6-17.7 288.88-17.7 288.45-17.2 288.03-16.7 288.03-15.8ZM313.32 0.45L313.32 0.45Q308.77 0.45 306.17-1.7L306.17-1.7Q305.12-2.6 304.35-4.35 303.57-6.1 303.57-8.45 303.57-10.8 304.7-12.55 305.82-14.3 307.42-15.25 309.02-16.2 311.17-16.8L311.17-16.8Q314.42-17.65 318.32-17.65L318.32-17.65 319.97-17.65Q319.97-19.7 318.57-20.55L318.57-20.55Q317.97-20.9 316.75-20.9 315.52-20.9 313.8-20.25 312.07-19.6 310.92-18.93 309.77-18.25 309.37-18.25L309.37-18.25Q308.47-18.25 306.92-20.63 305.37-23 305.37-24.95L305.37-24.95Q305.37-25.6 307.22-26.65 309.07-27.7 312.45-28.58 315.82-29.45 319.02-29.45 322.22-29.45 324.55-28.93 326.87-28.4 328.35-27.65 329.82-26.9 330.85-25.65 331.87-24.4 332.4-23.4 332.92-22.4 333.17-20.8L333.17-20.8Q333.52-18.95 333.52-16.25L333.52-16.25 333.52-1.2Q333.52-0.65 330.85-0.33 328.17 0 325.55 0 322.92 0 322.15-0.15 321.37-0.3 321.22-0.5 321.07-0.7 320.97-1.2L320.97-1.2 320.57-4.05 320.17-4.05Q318.92 0.45 313.32 0.45ZM320.02-7.85L320.02-7.85 320.02-13.7Q318.72-13.7 317.92-12.6 317.12-11.5 317.12-10.1L317.12-10.1Q317.12-6.8 318.62-6.8L318.62-6.8Q319.27-6.8 319.65-7.13 320.02-7.45 320.02-7.85ZM346.42 0.45L346.42 0.45Q344.57 0.45 342.97-0.1 341.37-0.65 340.35-1.45 339.32-2.25 338.57-3.6 337.82-4.95 337.42-6.18 337.02-7.4 336.82-9.2L336.82-9.2Q336.52-11.85 336.52-15.25L336.52-15.25Q336.52-22.2 339.07-25.83 341.62-29.45 346.07-29.45L346.07-29.45Q350.62-29.45 352.67-27.3L352.67-27.3Q353.12-26.8 353.37-26.1L353.37-26.1 353.77-26.1 353.17-29.55 353.17-35.8Q353.17-36.9 355.97-37.95 358.77-39 362.02-39L362.02-39Q365.42-39 366.37-37.7L366.37-37.7Q366.72-37.2 366.72-36.7L366.72-36.7 366.72-1.2Q366.72-0.65 363.95-0.33 361.17 0 358.6 0 356.02 0 355.3-0.18 354.57-0.35 354.4-0.55 354.22-0.75 354.17-1.2L354.17-1.2 353.77-4.05 353.37-4.05Q352.92-2.3 351.57-1.1L351.57-1.1Q349.87 0.45 346.42 0.45ZM352.02-6.85L352.02-6.85Q352.82-6.85 353.22-7.85L353.22-7.85 353.22-21.2Q353.22-21.7 352.7-21.98 352.17-22.25 351.77-22.25L351.77-22.25Q350.07-22.25 350.07-14.45L350.07-14.45Q350.07-10.3 350.55-8.58 351.02-6.85 352.02-6.85ZM385.02-11.3L383.37-11.3Q383.37-8.05 386.47-8.05L386.47-8.05Q388.27-8.05 391.17-9.28 394.07-10.5 394.22-10.5L394.22-10.5Q395.17-10.5 396.72-7.65 398.27-4.8 398.27-3.45L398.27-3.45Q398.27-1.5 394.27-0.5 390.27 0.5 386.44 0.5 382.62 0.5 380.04-0.1 377.47-0.7 375.84-1.63 374.22-2.55 372.99-3.9 371.77-5.25 371.17-6.48 370.57-7.7 370.22-9.2L370.22-9.2Q369.72-11.4 369.72-13.75L369.72-13.75Q369.72-22.85 374.47-26.3L374.47-26.3Q376.82-28.05 379.72-28.75 382.62-29.45 386.57-29.45L386.57-29.45Q399.22-29.45 399.22-20.65L399.22-20.65Q399.22-11.3 385.02-11.3L385.02-11.3ZM383.27-18.6L383.27-18.6 383.27-15.3Q384.72-15.3 385.64-16.45 386.57-17.6 386.57-19.25L386.57-19.25Q386.57-22.25 385.02-22.25L385.02-22.25Q383.27-22.25 383.27-18.6ZM427.21-25.85L427.21-25.85 427.21-1.2Q427.21-0.65 424.34-0.33 421.46 0 418.44 0 415.41 0 414.54-0.28 413.66-0.55 413.66-1.2L413.66-1.2 413.66-24.95Q413.66-26.05 416.49-27.13 419.31-28.2 422.66-28.2L422.66-28.2Q427.21-28.2 427.21-25.85ZM420.41-39L420.41-39Q423.71-39 425.59-38.02 427.46-37.05 427.46-34.5L427.46-34.5Q427.46-30 420.46-30 413.46-30 413.46-34.5 413.46-39 420.41-39ZM461.11-16.6L461.11-16.6 461.11-1.2Q461.11-0.65 458.26-0.33 455.41 0 452.39 0 449.36 0 448.49-0.28 447.61-0.55 447.61-1.2L447.61-1.2 447.61-17.1Q447.61-19.35 447.44-20.05 447.26-20.75 447.11-21.3L447.11-21.3Q446.76-22.25 445.86-22.25L445.86-22.25Q444.46-22.25 444.46-20.9L444.46-20.9 444.46-1.2Q444.46-0.65 441.64-0.33 438.81 0 435.79 0 432.76 0 431.86-0.28 430.96-0.55 430.96-1.2L430.96-1.2 430.96-25.85Q430.96-26.9 433.84-27.95 436.71-29 439.91-29 443.11-29 443.51-27.15L443.51-27.15 443.96-24.95 444.31-24.95Q445.76-27.85 449.31-29L449.31-29Q450.76-29.45 452.51-29.45L452.51-29.45Q457.56-29.45 459.34-26.43 461.11-23.4 461.11-16.6ZM490.11-11.7L490.11-1.45Q490.11-0.8 487.06-0.4 484 0 480.93 0 477.86 0 476.98-0.35 476.11-0.7 476.11-1.45L476.11-1.45 476.11-33.6Q476.11-34.9 479.38-35.45 482.66-36 487.66-36 492.66-36 494.13-35.98 495.61-35.95 497.61-35.8 499.61-35.65 500.78-35.3 501.96-34.95 503.38-34.4 504.81-33.85 505.61-32.98 506.41-32.1 507.16-30.9L507.16-30.9Q508.5-28.75 508.5-24.78 508.5-20.8 507.18-18.07 505.86-15.35 503.66-13.95L503.66-13.95Q509.41-4.9 509.41-2.45 509.41 0 499.56 0L499.56 0Q496.71 0 495.61-0.25 494.5-0.5 494.21-1.35L494.21-1.35 490.96-11.65 490.11-11.7ZM490.11-28.1L490.11-19.4 491.41-19.4Q494.31-19.4 494.31-23.9L494.31-23.9Q494.31-26.2 493.53-27.15 492.75-28.1 491.75-28.1L491.75-28.1 490.11-28.1ZM526.45-11.3L524.8-11.3Q524.8-8.05 527.9-8.05L527.9-8.05Q529.7-8.05 532.6-9.28 535.5-10.5 535.65-10.5L535.65-10.5Q536.6-10.5 538.15-7.65 539.7-4.8 539.7-3.45L539.7-3.45Q539.7-1.5 535.7-0.5 531.7 0.5 527.88 0.5 524.05 0.5 521.48-0.1 518.9-0.7 517.28-1.63 515.65-2.55 514.43-3.9 513.2-5.25 512.6-6.48 512-7.7 511.65-9.2L511.65-9.2Q511.15-11.4 511.15-13.75L511.15-13.75Q511.15-22.85 515.9-26.3L515.9-26.3Q518.25-28.05 521.15-28.75 524.05-29.45 528-29.45L528-29.45Q540.65-29.45 540.65-20.65L540.65-20.65Q540.65-11.3 526.45-11.3L526.45-11.3ZM524.7-18.6L524.7-18.6 524.7-15.3Q526.15-15.3 527.08-16.45 528-17.6 528-19.25L528-19.25Q528-22.25 526.45-22.25L526.45-22.25Q524.7-22.25 524.7-18.6ZM553.15 0.45L553.15 0.45Q548.6 0.45 546-1.7L546-1.7Q544.95-2.6 544.17-4.35 543.4-6.1 543.4-8.45 543.4-10.8 544.52-12.55 545.65-14.3 547.25-15.25 548.85-16.2 551-16.8L551-16.8Q554.25-17.65 558.15-17.65L558.15-17.65 559.8-17.65Q559.8-19.7 558.4-20.55L558.4-20.55Q557.8-20.9 556.57-20.9 555.35-20.9 553.63-20.25 551.9-19.6 550.75-18.93 549.6-18.25 549.2-18.25L549.2-18.25Q548.3-18.25 546.75-20.63 545.2-23 545.2-24.95L545.2-24.95Q545.2-25.6 547.05-26.65 548.9-27.7 552.27-28.58 555.65-29.45 558.85-29.45 562.05-29.45 564.38-28.93 566.7-28.4 568.17-27.65 569.65-26.9 570.67-25.65 571.7-24.4 572.23-23.4 572.75-22.4 573-20.8L573-20.8Q573.35-18.95 573.35-16.25L573.35-16.25 573.35-1.2Q573.35-0.65 570.67-0.33 568 0 565.38 0 562.75 0 561.98-0.15 561.2-0.3 561.05-0.5 560.9-0.7 560.8-1.2L560.8-1.2 560.4-4.05 560-4.05Q558.75 0.45 553.15 0.45ZM559.85-7.85L559.85-7.85 559.85-13.7Q558.55-13.7 557.75-12.6 556.95-11.5 556.95-10.1L556.95-10.1Q556.95-6.8 558.45-6.8L558.45-6.8Q559.1-6.8 559.48-7.13 559.85-7.45 559.85-7.85ZM590.35-36.7L590.35-36.7 590.35-1.2Q590.35-0.65 587.5-0.33 584.65 0 581.62 0 578.6 0 577.72-0.28 576.85-0.55 576.85-1.2L576.85-1.2 576.85-35.8Q576.85-36.9 579.67-37.95 582.5-39 585.75-39L585.75-39Q590.35-39 590.35-36.7ZM630.69 0L630.69 0 609.49 0Q607.04 0 606.19-0.35 605.34-0.7 605.34-1.45L605.34-1.45 605.34-33.1Q605.34-34.4 606.52-34.95 607.69-35.5 610.74-35.5L610.74-35.5 630.84-35.5Q631.89-35.5 631.89-32.02 631.89-28.55 631.44-26.73 630.99-24.9 630.24-24.9L630.24-24.9Q626.99-24.9 619.29-25.55L619.29-25.55 619.29-22.2Q626.69-22.5 628.94-22.5L628.94-22.5Q630.29-22.5 630.29-19.35 630.29-16.2 629.77-14.58 629.24-12.95 628.34-12.95L628.34-12.95 619.29-13.15 619.29-9.95Q627.99-10.6 631.29-10.6L631.29-10.6Q632.34-10.6 632.34-7.1 632.34-3.6 631.89-1.8 631.44 0 630.69 0ZM649.19 0.45L649.19 0.45Q640.89 0.45 637.04-1.15L637.04-1.15Q635.09-2 635.09-2.8L635.09-2.8Q635.09-4.85 636.29-7.6 637.49-10.35 638.39-10.35L638.39-10.35Q638.89-10.35 641.76-9.25 644.64-8.15 646.61-8.15 648.59-8.15 649.21-8.4 649.84-8.65 649.84-9.38 649.84-10.1 648.84-10.53 647.84-10.95 646.34-11.1 644.84-11.25 643.11-11.7 641.39-12.15 639.89-12.85 638.39-13.55 637.39-15.18 636.39-16.8 636.39-18.68 636.39-20.55 636.49-21.48 636.59-22.4 637.31-24.08 638.04-25.75 639.36-26.8 640.69-27.85 643.46-28.7 646.24-29.55 649.69-29.55 653.14-29.55 655.46-29.33 657.79-29.1 659.11-28.75 660.44-28.4 661.29-27.95L661.29-27.95Q662.74-27.2 662.74-26.3L662.74-26.3Q662.74-24.35 661.34-21.8 659.94-19.25 659.11-19.25 658.29-19.25 655.54-20.13 652.79-21 651.49-21L651.49-21Q649.39-21 649.39-19.8L649.39-19.8Q649.39-19.05 650.81-18.68 652.24-18.3 654.24-17.9 656.24-17.5 658.26-16.78 660.29-16.05 661.71-14.15 663.14-12.25 663.14-9.35L663.14-9.35Q663.14 0.45 649.19 0.45ZM685.79-0.45Q684.89 0.4 681.69 0.4 678.49 0.4 676.39-0.03 674.29-0.45 672.39-1.7L672.39-1.7Q668.74-4.15 668.74-11.9L668.74-11.9 668.74-19.7 666.24-19.7Q665.69-19.7 665.29-20.85 664.89-22 664.89-24 664.89-26 665.51-27.53 666.14-29.05 667.14-29.05L667.14-29.05 668.74-29.05 668.74-35.1Q668.74-36.65 671.76-37.6 674.79-38.55 677.69-38.55L677.69-38.55Q682.24-38.55 682.24-36.3L682.24-36.3 682.24-29.05 685.94-29.05Q687.24-29.05 687.24-25.3L687.24-25.3Q687.24-22.85 686.66-21.28 686.09-19.7 685.19-19.7L685.19-19.7 682.24-19.7 682.24-10.55Q682.24-9.2 683.39-8.63 684.54-8.05 685.41-8.05 686.29-8.05 686.49-7.2 686.69-6.35 686.69-4.65L686.69-4.65Q686.69-1.3 685.79-0.45ZM699.73 0.45L699.73 0.45Q695.18 0.45 692.58-1.7L692.58-1.7Q691.53-2.6 690.76-4.35 689.98-6.1 689.98-8.45 689.98-10.8 691.11-12.55 692.23-14.3 693.83-15.25 695.43-16.2 697.58-16.8L697.58-16.8Q700.83-17.65 704.73-17.65L704.73-17.65 706.38-17.65Q706.38-19.7 704.98-20.55L704.98-20.55Q704.38-20.9 703.16-20.9 701.93-20.9 700.21-20.25 698.48-19.6 697.33-18.93 696.18-18.25 695.78-18.25L695.78-18.25Q694.88-18.25 693.33-20.63 691.78-23 691.78-24.95L691.78-24.95Q691.78-25.6 693.63-26.65 695.48-27.7 698.86-28.58 702.23-29.45 705.43-29.45 708.63-29.45 710.96-28.93 713.28-28.4 714.76-27.65 716.23-26.9 717.26-25.65 718.28-24.4 718.81-23.4 719.33-22.4 719.58-20.8L719.58-20.8Q719.93-18.95 719.93-16.25L719.93-16.25 719.93-1.2Q719.93-0.65 717.26-0.33 714.58 0 711.96 0 709.33 0 708.56-0.15 707.78-0.3 707.63-0.5 707.48-0.7 707.38-1.2L707.38-1.2 706.98-4.05 706.58-4.05Q705.33 0.45 699.73 0.45ZM706.43-7.85L706.43-7.85 706.43-13.7Q705.13-13.7 704.33-12.6 703.53-11.5 703.53-10.1L703.53-10.1Q703.53-6.8 705.03-6.8L705.03-6.8Q705.68-6.8 706.06-7.13 706.43-7.45 706.43-7.85ZM743.08-0.45Q742.18 0.4 738.98 0.4 735.78 0.4 733.68-0.03 731.58-0.45 729.68-1.7L729.68-1.7Q726.03-4.15 726.03-11.9L726.03-11.9 726.03-19.7 723.53-19.7Q722.98-19.7 722.58-20.85 722.18-22 722.18-24 722.18-26 722.81-27.53 723.43-29.05 724.43-29.05L724.43-29.05 726.03-29.05 726.03-35.1Q726.03-36.65 729.06-37.6 732.08-38.55 734.98-38.55L734.98-38.55Q739.53-38.55 739.53-36.3L739.53-36.3 739.53-29.05 743.23-29.05Q744.53-29.05 744.53-25.3L744.53-25.3Q744.53-22.85 743.96-21.28 743.38-19.7 742.48-19.7L742.48-19.7 739.53-19.7 739.53-10.55Q739.53-9.2 740.68-8.63 741.83-8.05 742.71-8.05 743.58-8.05 743.78-7.2 743.98-6.35 743.98-4.65L743.98-4.65Q743.98-1.3 743.08-0.45ZM762.33-11.3L760.68-11.3Q760.68-8.05 763.78-8.05L763.78-8.05Q765.58-8.05 768.48-9.28 771.38-10.5 771.53-10.5L771.53-10.5Q772.48-10.5 774.03-7.65 775.58-4.8 775.58-3.45L775.58-3.45Q775.58-1.5 771.58-0.5 767.58 0.5 763.75 0.5 759.93 0.5 757.35-0.1 754.78-0.7 753.15-1.63 751.53-2.55 750.3-3.9 749.08-5.25 748.48-6.48 747.88-7.7 747.53-9.2L747.53-9.2Q747.03-11.4 747.03-13.75L747.03-13.75Q747.03-22.85 751.78-26.3L751.78-26.3Q754.13-28.05 757.03-28.75 759.93-29.45 763.88-29.45L763.88-29.45Q776.53-29.45 776.53-20.65L776.53-20.65Q776.53-11.3 762.33-11.3L762.33-11.3ZM760.58-18.6L760.58-18.6 760.58-15.3Q762.03-15.3 762.95-16.45 763.88-17.6 763.88-19.25L763.88-19.25Q763.88-22.25 762.33-22.25L762.33-22.25Q760.58-22.25 760.58-18.6Z" opacity="1" transform="matrix(1,0,0,1,0,0)" fill="#000000" class="undefined-text-1" data-fill-palette-color="secondary" id="text-1"></path></svg></g></svg></g></svg></g></svg></g><g transform="matrix(1,0,0,1,55.14747420613154,0)"><svg viewBox="0 0 81.70505158773692 64.56694974897783" height="64.56694974897783" width="81.70505158773692"><g><svg xmlns="http://www.w3.org/2000/svg" xmlns:xlink="http://www.w3.org/1999/xlink" version="1.1" x="0" y="0" viewBox="11.873928871476872 24.453 120.33367691735613 95.093" enable-background="new 0 0 144.083 144" xml:space="preserve" height="64.56694974897783" width="81.70505158773692" class="icon-icon-0" data-fill-palette-color="accent" id="icon-0"><path d="M132.122 83.668l-10-40.91c-0.328-1.343-1.531-2.288-2.914-2.288H50.291V27.453c0-1.657-1.343-3-3-3h-14c-1.657 0-3 1.343-3 3v13.018h-5.415c-1.382 0-2.586 0.945-2.914 2.288L11.96 83.668c-0.219 0.895-0.015 1.841 0.554 2.565 0.569 0.724 1.439 1.147 2.36 1.147h1.734v29.166c0 1.657 1.343 3 3 3h33.275 9.746 18.824H91.2h33.275c1.658 0 3-1.343 3-3V87.381h1.732c0.922 0 1.791-0.423 2.359-1.147C132.137 85.509 132.34 84.563 132.122 83.668zM119.31 56.524l6.077 24.856H94.2V67.135c0-0.707-0.25-1.391-0.705-1.932l-7.306-8.678H119.31zM55.884 113.547v-45.3l16.334-19.002L88.2 68.229v45.317h-3.746V92.861c0-6.844-5.568-12.412-12.412-12.412-6.844 0-12.412 5.568-12.412 12.412v20.686H55.884zM65.63 92.861c0-3.535 2.876-6.412 6.412-6.412 3.537 0 6.412 2.877 6.412 6.412v20.686H65.63V92.861zM117.843 50.524H81.138l-3.412-4.054h39.126L117.843 50.524zM36.291 30.453h8v10.018h-8V30.453zM27.23 46.471h39.461l-3.485 4.054H26.24L27.23 46.471zM24.773 56.524h33.276l-7.44 8.655c-0.468 0.544-0.725 1.238-0.725 1.956v14.246H18.696L24.773 56.524zM22.609 87.381h27.275v26.166H22.609V87.381zM121.475 113.547H94.2V87.381h27.275V113.547z" fill="#000000" data-fill-palette-color="accent"></path><rect x="38.758" y="93.164" width="6" height="11.723" fill="#000000" data-fill-palette-color="accent"></rect><rect x="27.758" y="93.164" width="6" height="11.723" fill="#000000" data-fill-palette-color="accent"></rect><rect x="109.446" y="93.164" width="6" height="11.723" fill="#000000" data-fill-palette-color="accent"></rect><rect x="98.446" y="93.164" width="6" height="11.723" fill="#000000" data-fill-palette-color="accent"></rect></svg></g></svg></g><g></g></svg></g></svg></g></svg></g></svg></g><defs></defs></svg><rect width="320" height="360" fill="none" stroke="none" visibility="hidden"></rect></g></svg></g></svg>